<svg xmlns="http://www.w3.org/2000/svg" xmlns:xlink="http://www.w3.org/1999/xlink" version="1.1" width="88" height="88" style="display: block;"><g class="currentLayer"><path id="path0" d="M1.201,0.855C-0.706,2.064 -0.023,15.036 2,16.024C2.825,16.428 7.55,17.506 12.5,18.422C41.689,23.819 69,52.957 69,78.7C69,85.572 70.555,87 78.038,87C87.109,87 87.563,86.363 86.068,75.758C81.94,46.486 63.851,21.41 37.5,8.428C25.689,2.61 5.18,-1.669 1.201,0.855M1.25,32.133C-0.413,33.819 -0.413,45.439 1.25,46.712C1.937,47.239 5.01,48.209 8.077,48.868C22.907,52.054 34.264,63.648 38.084,79.5C39.838,86.78 45.627,89.383 53.418,86.393C59.415,84.092 50.514,59.325 39.689,48.192C29.327,37.536 5.67,27.652 1.25,32.133M5.893,64.497C0.073,67.66 -1.809,75.736 1.946,81.433C10.254,94.035 28.963,83.262 22.484,69.607C19.668,63.674 11.843,61.263 5.893,64.497" stroke="none" fill="#3b8dbd" fill-rule="evenodd" class="selected"/></g></svg>